# xmcd
# 
# Track frame offsets:
#     150
#     17330
#     28034
#     45685
#     60935
#     73059
#     86973
#     100430
#     112799
#     129846
# 
# Disc length: 1940
# 
# Revision: 0
# Processed by: cddbd v1.5.2PL0 Copyright (c) Steve Scherf et al.
# Submitted via: fre:ac v1.0.17
# 
DISCID=7807920a
DTITLE=Mark Chesnutt - Longnecks and Short Stories
DYEAR=1992
DGENRE=Country
TTITLE0=Ol_Country
TTITLE1=Old Flames Have New Names
TTITLE2=I'll Think of Something
TTITLE3=It's Not Over (If I'm Not over You)
TTITLE4=Uptown, Downtown (Misery's All the Same)
TTITLE5=Bubba Shot the Jukebox
TTITLE6=Postpone the Pain
TTITLE7=Talking to Hank
TTITLE8=I'm Not Getting Any Better at Goodbyes
TTITLE9=Who Will the Next Fool Be
EXTD=
EXTT0=
EXTT1=
EXTT2=
EXTT3=
EXTT4=
EXTT5=
EXTT6=
EXTT7=
EXTT8=
EXTT9=
PLAYORDER=
